# xmcd
# 
# Track frame offsets:
#     150
#     26070
#     44615
#     67952
#     82305
#     100330
#     107327
#     123802
#     142393
#     166730
# 
# Disc length: 2392
# 
# Revision: 0
# Processed by: cddbd v1.5.2PL0 Copyright (c) Steve Scherf et al.
# Submitted via: fre:ac v1.0.27
# 
DISCID=8809560a
DTITLE=Jimmy Earl - Renewing Disguises
DYEAR=0
DGENRE=
TTITLE0=Africano Cento Cinquanta
TTITLE1=Old Jazz
TTITLE2=Night
TTITLE3=Cavatina
TTITLE4=Gone
TTITLE5=Ambient
TTITLE6=Renewing Disguises
TTITLE7=Weather Reporting
TTITLE8=Mr Thumpy
TTITLE9=Africano Cento Cinquanta Reprise
EXTD=
EXTT0=
EXTT1=
EXTT2=
EXTT3=
EXTT4=
EXTT5=
EXTT6=
EXTT7=
EXTT8=
EXTT9=
PLAYORDER=
